<svg xmlns="http://www.w3.org/2000/svg" width="44" height="44" viewBox="0 0 44 44">
  <metadata><?xpacket begin="﻿" id="W5M0MpCehiHzreSzNTczkc9d"?>
<x:xmpmeta xmlns:x="adobe:ns:meta/" x:xmptk="Adobe XMP Core 5.6-c142 79.160924, 2017/07/13-01:06:39        ">
   <rdf:RDF xmlns:rdf="http://www.w3.org/1999/02/22-rdf-syntax-ns#">
      <rdf:Description rdf:about=""/>
   </rdf:RDF>
</x:xmpmeta>
                                                                                                    
                                                                                                    
                                                                                                    
                                                                                                    
                                                                                                    
                                                                                                    
                                                                                                    
                                                                                                    
                                                                                                    
                                                                                                    
                                                                                                    
                                                                                                    
                                                                                                    
                                                                                                    
                                                                                                    
                                                                                                    
                                                                                                    
                                                                                                    
                                                                                                    
                                                                                                    
                           
<?xpacket end="w"?></metadata>
<defs>
    <style>
      .cls-1 {
        fill: #fff;
        fill-rule: evenodd;
      }
    </style>
  </defs>
  <path class="cls-1" d="M247.806,459.926v4.087a17.431,17.431,0,0,1-3.06-.766h-2.3c-3.836,0-5.717.483-8.161,1.788l-1.53.511a20.027,20.027,0,0,0-8.416,11.5l-0.255,6.13a4.739,4.739,0,0,0,1.786-1.022h0.51l0.255-.51h0.51l0.255-.511,1.02-.256,0.255-.511h0.51l0.255-.51,1.02-.256V479.34l0.765-.256,0.255-.511,1.02-.255,0.255-.511h0.51l0.255-.511h0.51l0.255-.511h0.51V476.53h0.511l0.255-.511h0.51l0.255-.511,1.02-.255V475l0.765-.255,0.255-.511,1.02-.256V473.72l0.765-.256,0.255-.51,1.02-.256,0.255-.511h0.51l0.255-.511h0.51l0.255-.511,1.02-.255v-0.255L245,470.4l0.255-.511h0.51v-0.255h0.51l0.255-.511h0.51l0.255-.511h0.51v-0.255h0.51l0.255-.511h0.51l0.255-.511,1.02-.256v-0.255l0.765-.256,0.255-.51h0.51l0.255-.511,1.02-.256,0.255-.511h0.51l0.255-.51h0.511v-0.256l0.765-.255v0.255c1.7,0.785,5.638,5.233,5.865,7.408l-33.153,20.691v0.511a1.713,1.713,0,0,1,.765.766c0.512-.147.221,0.031,0.51-0.255l0.765-.256v-0.255h0.51v-0.256h0.51l0.255-.511h0.51l0.255-.511h0.51V491.09h0.51l0.255-.511h0.51l0.255-.511,1.021-.255,0.255-.511h0.51l0.255-.511,0.765-.255V488.28l1.02-.255v-0.256l0.765-.255,0.255-.511,1.02-.256v-0.255l0.765-.255,0.255-.511h0.51V485.47h0.51l0.255-.511h0.51l0.255-.511,1.02-.255,0.255-.511H245l0.255-.511,1.02-.255,0.255-.511h0.51l0.255-.511,0.765-.255v-0.256l1.02-.255v-0.256l0.765-.255,0.255-.511h0.51v-0.255h0.51l0.255-.511h0.51l0.255-.511,1.02-.256,0.255-.511h0.51l0.255-.51,1.021-.256,0.255-.511h0.51l0.255-.511h0.51l0.255-.511,1.02-.255,0.255-.511h0.51l0.255-.511,1.02-.255,0.255-.511,2.04-1.022a7.809,7.809,0,0,0,.765,2.3v0.766h0.255v1.278h0.255v1.532h0.255a14.118,14.118,0,0,1-.255,4.854l-0.255,2.81h-0.255l-0.255,1.788H262.6l-0.255,1.277h-0.255l-0.255,1.022h-0.255l-0.51,1.532-0.51.256v0.511H260.3v0.511l-0.765.51v0.511l-0.765.511v0.511l-1.02.766q-0.765.894-1.53,1.788h-0.51l-0.51.767h-0.51l-0.511.766-1.02.256-0.255.51-1.02.256v0.255l-1.53.511v0.256h-0.765v0.255h-0.51v0.256h-1.02v0.255H247.3v0.255h-1.275c-1.02.309-4.767,0.969-6.376,0.511v-0.255H237.86v-0.256l-1.785-.255v-4.087a17.476,17.476,0,0,1,3.06.766h2.3c3.836,0,5.717-.483,8.161-1.788l1.53-.511,0.255-.511h0.51l0.255-.51h0.51l0.51-.767h0.51l0.255-.511,1.786-1.532v-0.511l1.02-.767v-0.51l0.51-.256,0.255-1.022h0.255v-0.511h0.255l0.51-1.532h0.255v-0.767h0.255v-0.766h0.255v-1.022h0.255v-1.277h0.255v-4.6l-0.765.256V479.6h-0.51v0.256h-0.51l-0.255.51h-0.51l-0.255.511h-0.51v0.256h-0.51l-0.255.511H255.2l-0.255.51-1.021.256-0.255.511h-0.51l-0.255.511H252.4l-0.255.511-1.02.255v0.255l-0.765.256-0.255.511h-0.51v0.255h-0.51l-0.255.511h-0.51l-0.255.511-1.02.255-0.255.511h-0.51l-0.255.511-1.02.256-0.255.511h-0.511l-0.255.51-0.765.256v0.255l-1.02.256v0.255l-0.765.256-0.255.511-1.02.255-0.255.511h-0.51l-0.255.511-1.02.255v0.256l-0.765.255-0.255.511-1.02.255-0.255.511h-0.51l-0.255.511-1.021.256-0.255.511h-0.51l-0.255.51H232.5l-0.255.511-1.02.256-0.255.511h-0.51l-0.255.51-1.02.256-0.255.511c-0.358.046,0.076-.113-0.255-0.256-1.845-1-5.637-5.148-6.121-7.407a4.774,4.774,0,0,0,1.785-.767l0.255-.511h0.51c0.085-.17.171-0.34,0.256-0.511l1.02-.255,0.255-.511h0.51l0.255-.511,1.02-.255,0.255-.511h0.51l0.255-.511,1.02-.255v-0.256l0.765-.255,0.255-.511h0.51v-0.256h0.51l0.255-.511h0.51l0.255-.51,1.02-.256,0.255-.511h0.511l0.255-.511h0.51l0.255-.511h0.51v-0.255h0.51l0.255-.511h0.51l0.255-.511,1.02-.255v-0.256l0.765-.255,0.255-.511h0.51V479.34h0.51l0.255-.511h0.51l0.255-.511,1.02-.256,0.255-.51h0.51l0.255-.511,0.766-.256V476.53l1.02-.256v-0.255l0.765-.256,0.255-.51,1.02-.256v-0.255l0.765-.256,0.255-.511h0.51V473.72h0.51l0.255-.511h0.51l0.255-.511,1.02-.255,0.255-.511h0.51l0.255-.511h0.51l0.255-.511h0.511v-0.255h0.51l0.255-.511h0.51v-0.256h-0.255c-0.189-.821-0.346-0.93-1.275-1.022-0.5.728-1.3,0.786-2.041,1.278l-0.255.511h-0.51v0.255h-0.51l-0.255.511h-0.51l-0.255.511-1.02.255-0.255.511h-0.51l-0.255.511h-0.51l-0.255.511-1.02.255v0.256l-0.765.255-0.255.511h-0.51v0.256h-0.511l-0.255.51h-0.51l-0.255.511-1.02.256v0.255l-0.765.256-0.255.511-1.02.255-0.255.511h-0.51l-0.255.511-0.765.255v0.256l-1.02.255v0.256l-0.765.255-0.255.511-1.02.255v0.256l-0.766.255-0.255.511-1.02.255-0.255.511H232.5l-0.255.511-1.02.256v0.255l-0.765.256-0.255.51-1.02.256-0.255.511h-0.51l-0.255.511h-0.51l-0.255.511-1.02.255v0.255l-0.765.256-0.255.511-1.021.255-0.255.511h-0.51l-0.255.511-1.02.255-0.255.511c-0.358.046,0.076-.112-0.255-0.255h-0.255l-0.255-1.533h-0.255V487a18.885,18.885,0,0,1,.51-13.539V472.7h0.255l0.51-1.533h0.255l0.255-1.021,0.51-.256,0.255-1.022,0.765-.51v-0.511l1.021-.767v-0.511l1.785-1.532,0.255-.511h0.51l0.765-1.022h0.51l0.51-.766,1.02-.256,0.255-.51,1.02-.256v-0.255l1.53-.511v-0.256l2.3-.511v-0.255h0.765v-0.255h1.275c1.018-.308,4.768-0.97,6.375-0.511v0.255h1.786v0.256Z" transform="translate(-220 -459)"/>
</svg>
